Patient4_TMGait_0pt6_02_right_27_GRF.mot
version=1
nRows=58
nColumns=19
inDegrees=no
endheader
time	F1x	F1y	F1z	M1x	M1y	M1z	F2x	F2y	F2z	M2x	M2y	M2z	EC1x	EC1y	EC1z	EC2x	EC2y	EC2z
32.44	-0.45102	753.8032	84.5853	-244.4369	-83.0016	795.04	24.1897	-22.5104	-8.2117	-2.6623	0.63787	-30.5929	-0.0592	0.0182	-0.0073	-0.0462	0.0165	0.9585
32.4521	3.6206	741.1973	79.8673	-239.5245	-77.1045	777.2059	14.2844	-10.5383	-5.0921	-0.30913	0.65005	-14.509	-0.0592	0.0182	-0.0073	-0.0462	0.0165	0.9585
32.4641	7.522	728.0165	75.8089	-234.2601	-71.834	758.8802	6.1319	-0.55097	-2.5398	1.6718	0.70095	-1.1742	-0.0592	0.0182	-0.0073	-0.0462	0.0165	0.9585
32.4762	11.0574	715.4738	72.6308	-229.0948	-67.4675	741.5193	0.071667	6.9886	-0.64343	3.1838	0.75768	8.8346	-0.0592	0.0182	-0.0073	-0.0462	0.0165	0.9585
32.4883	14.1201	704.6514	70.3672	-224.4275	-64.0864	726.3213	-4.021	12.1752	0.62313	4.2394	0.82578	15.6746	-0.0592	0.0182	-0.0073	-0.0462	0.0165	0.9585
32.5004	16.7116	696.3311	68.8523	-220.5529	-61.5443	714.0371	-6.4689	15.3505	1.3734	4.8981	0.89257	19.8185	-0.0592	0.0182	-0.0073	-0.0462	0.0165	0.9585
32.5124	18.9024	690.8841	67.924	-217.6135	-59.6746	704.9498	-7.7315	16.985	1.7331	5.2439	0.96951	21.9376	-0.0592	0.0182	-0.0073	-0.0462	0.0165	0.9585
32.5245	20.8108	688.2896	67.4431	-215.6158	-58.3119	698.9149	-8.1477	17.4646	1.8238	5.3395	1.0387	22.5402	-0.0592	0.0182	-0.0073	-0.0462	0.0165	0.9585
32.5366	22.6113	688.2661	67.2625	-214.4731	-57.2679	695.515	-8.1122	17.161	1.7526	5.241	1.1139	22.1494	-0.0592	0.0182	-0.0073	-0.0462	0.0165	0.9585
32.5486	24.4588	690.3663	67.3091	-214.0423	-56.4259	694.2063	-7.7825	16.253	1.5954	4.9612	1.1786	20.9727	-0.0592	0.0182	-0.0073	-0.0462	0.0165	0.9585
32.5607	26.5375	694.1012	67.4377	-214.1675	-55.5956	694.3953	-7.3934	14.9148	1.4094	4.513	1.2451	19.2736	-0.0592	0.0182	-0.0073	-0.0462	0.0165	0.9585
32.5728	28.9553	699.0256	67.598	-214.7054	-54.6942	695.5914	-6.944	13.1437	1.2301	3.8735	1.2834	17.0191	-0.0592	0.0182	-0.0073	-0.0462	0.0165	0.9585
32.5849	31.8282	704.7745	67.6628	-215.5443	-53.5659	697.3869	-6.5414	11.0276	1.0869	3.0505	1.286	14.3659	-0.0592	0.0182	-0.0073	-0.0462	0.0165	0.9585
32.5969	35.1991	711.1006	67.6512	-216.6083	-52.2127	699.5466	-6.0785	8.5693	0.99824	2.051	1.1968	11.278	-0.0592	0.0182	-0.0073	-0.0462	0.0165	0.9585
32.609	39.1293	717.8443	67.5376	-217.8603	-50.5911	701.9048	-5.5952	5.9948	0.98692	0.96485	0.98181	8.0645	-0.0592	0.0182	-0.0073	-0.0462	0.0165	0.9585
32.6211	43.6342	724.9236	67.4432	-219.293	-48.8077	704.4159	-4.9414	3.6284	1.0675	-0.046486	0.57334	5.0893	-0.0592	0.0182	-0.0073	-0.0462	0.0165	0.9585
32.6331	48.7069	732.3343	67.4266	-220.9385	-46.9234	707.1328	-4.1375	2.1852	1.2624	-0.66348	-0.056504	3.2748	-0.0592	0.0182	-0.0073	-0.0462	0.0165	0.9585
32.6452	54.2742	740.0341	67.6268	-222.8356	-45.0963	710.128	-3.086	2.6726	1.5807	-0.41623	-0.93713	3.8424	-0.0592	0.0182	-0.0073	-0.0462	0.0165	0.9585
32.6573	60.2153	747.9424	68.0953	-225.0299	-43.4138	713.4838	-1.8852	6.6114	2.0239	1.3769	-2.0287	8.7204	-0.0592	0.0182	-0.0073	-0.0462	0.0165	0.9585
32.6694	66.3512	755.807	68.8779	-227.5235	-41.9841	717.1474	-0.62969	15.8261	2.5525	5.5549	-3.2252	20.1844	-0.0592	0.0182	-0.0073	-0.0462	0.0165	0.9585
32.6814	72.4486	763.1618	69.8872	-230.2595	-40.8264	720.911	0.35405	32.4694	3.0986	13.0833	-4.2923	40.9651	-0.0592	0.0182	-0.0073	-0.0462	0.0165	0.9585
32.6935	78.2354	769.1454	70.9751	-233.0435	-39.9268	724.1625	0.62308	58.5251	3.5249	24.8581	-4.8405	73.5576	-0.0592	0.0182	-0.0073	-0.0462	0.0165	0.9585
32.7056	83.2971	772.3757	71.8509	-235.4671	-39.1822	725.7561	-0.53144	95.2857	3.6242	41.4462	-4.2779	119.6248	-0.0592	0.0182	-0.0073	-0.0462	0.0165	0.9585
32.7176	87.105	770.6174	72.0796	-236.7617	-38.378	723.5465	-4.0242	142.3783	3.0936	62.6589	-1.8162	178.7382	-0.0592	0.0182	-0.0073	-0.0462	0.0165	0.9585
32.7297	88.893	760.6771	71.0466	-235.7027	-37.1779	714.2906	-10.7635	196.7771	1.6761	87.1078	3.2557	247.1718	-0.0592	0.0182	-0.0073	-0.0462	0.0165	0.9585
32.7418	88.094	738.7796	68.1767	-230.7808	-35.1468	693.9424	-20.4051	252.308	-0.96697	112.0058	11.1134	317.1955	-0.0592	0.0182	-0.0073	-0.0462	0.0165	0.9585
32.7539	84.8	702.6096	63.2337	-221.028	-31.9271	660.0392	-30.9812	302.0303	-4.9854	134.2714	20.9283	379.9135	-0.0592	0.0182	-0.0073	-0.0462	0.0165	0.9585
32.7659	79.4958	652.3431	56.505	-206.4514	-27.5782	612.7247	-41.057	342.7303	-9.7368	152.4639	31.2659	431.0456	-0.0592	0.0182	-0.0073	-0.0462	0.0165	0.9585
32.778	72.5423	590.4791	48.7958	-187.9199	-22.7605	554.5961	-49.9148	375.4892	-14.6482	167.0705	41.1199	471.7446	-0.0592	0.0182	-0.0073	-0.0462	0.0165	0.9585
32.7901	64.2197	520.9598	40.9821	-166.811	-18.2589	489.6012	-57.2046	403.6822	-19.0197	179.6227	49.5347	506.2085	-0.0592	0.0182	-0.0073	-0.0462	0.0165	0.9585
32.8021	54.7224	448.325	33.8194	-144.6685	-14.7717	422.206	-62.7003	430.9542	-22.6907	191.7587	56.2314	538.9682	-0.0592	0.0182	-0.0073	-0.0462	0.0165	0.9585
32.8142	44.4416	376.9496	27.6957	-122.9397	-12.5533	356.4877	-66.5326	459.8773	-25.5479	204.6324	61.1738	573.2295	-0.0592	0.0182	-0.0073	-0.0462	0.0165	0.9585
32.8263	33.9574	310.4969	22.7809	-102.7742	-11.5723	295.7252	-68.8566	491.5567	-27.9726	218.7302	64.8935	610.3486	-0.0592	0.0182	-0.0073	-0.0462	0.0165	0.9585
32.8384	23.9118	251.478	18.9956	-84.9041	-11.5103	241.9777	-69.9171	526.0667	-30.2919	234.0436	67.9216	650.4437	-0.0592	0.0182	-0.0073	-0.0462	0.0165	0.9585
32.8504	14.8666	201.1214	16.1735	-69.6287	-11.9909	196.1087	-69.916	562.5059	-32.9618	250.133	70.8826	692.461	-0.0592	0.0182	-0.0073	-0.0462	0.0165	0.9585
32.8625	7.1897	159.4155	14.0442	-56.8699	-12.5975	157.9167	-69.1538	599.4717	-36.0769	266.3373	74.0403	734.7573	-0.0592	0.0182	-0.0073	-0.0462	0.0165	0.9585
32.8746	1.0416	125.4504	12.3299	-46.3012	-12.9994	126.4603	-67.9633	635.3579	-39.6248	281.9214	77.518	775.4502	-0.0592	0.0182	-0.0073	-0.0462	0.0165	0.9585
32.8866	-3.6449	98.0174	10.8255	-37.5437	-13.0221	100.6582	-66.6595	668.7552	-43.35	296.2689	81.1516	812.8982	-0.0592	0.0182	-0.0073	-0.0462	0.0165	0.9585
32.8987	-6.8941	75.957	9.3594	-30.2753	-12.5479	79.5205	-65.4094	698.6603	-46.9385	308.9547	84.6403	845.9354	-0.0592	0.0182	-0.0073	-0.0462	0.0165	0.9585
32.9108	-8.803	58.3154	7.8995	-24.248	-11.6075	62.2959	-64.2321	724.3612	-50.1095	319.6961	87.6639	873.721	-0.0592	0.0182	-0.0073	-0.0462	0.0165	0.9585
32.9229	-9.3999	44.3236	6.4026	-19.2748	-10.2081	48.3279	-63.111	745.284	-52.7355	328.2737	90.052	895.5985	-0.0592	0.0182	-0.0073	-0.0462	0.0165	0.9585
32.9349	-8.9582	33.3948	4.9584	-15.2123	-8.5311	37.1772	-61.9118	760.9633	-54.8172	334.5158	91.7422	911.0149	-0.0592	0.0182	-0.0073	-0.0462	0.0165	0.9585
32.947	-7.8618	25.0769	3.5845	-11.9541	-6.7195	28.4448	-60.5816	771.1494	-56.3567	338.3436	92.7131	919.7026	-0.0592	0.0182	-0.0073	-0.0462	0.0165	0.9585
32.9591	-6.4863	18.869	2.3867	-9.3675	-4.9815	21.757	-59.0306	775.881	-57.4032	339.8122	92.9851	921.7227	-0.0592	0.0182	-0.0073	-0.0462	0.0165	0.9585
32.9711	-4.9996	14.2782	1.3377	-7.3275	-3.3536	16.6583	-57.2084	775.731	-57.9392	339.1933	92.527	917.7935	-0.0592	0.0182	-0.0073	-0.0462	0.0165	0.9585
32.9832	-3.6078	10.9047	0.50595	-5.7254	-1.9618	12.8169	-55.0613	771.6327	-57.9724	336.9251	91.3307	909.0371	-0.0592	0.0182	-0.0073	-0.0462	0.0165	0.9585
32.9953	-2.3499	8.4318	-0.16042	-4.4771	-0.77831	9.9181	-52.6085	764.8373	-57.5084	333.5629	89.4198	896.9595	-0.0592	0.0182	-0.0073	-0.0462	0.0165	0.9585
33.0074	-1.3001	6.6213	-0.63292	-3.5083	0.14768	7.7617	-49.8764	756.5977	-56.6087	329.6602	86.8838	883.0466	-0.0592	0.0182	-0.0073	-0.0462	0.0165	0.9585
33.0194	-0.44474	5.3213	-0.96533	-2.7696	0.85644	6.1659	-46.9713	748.058	-55.3383	325.7134	83.8428	868.6693	-0.0592	0.0182	-0.0073	-0.0462	0.0165	0.9585
33.0315	0.19396	4.3811	-1.1482	-2.2087	1.3267	4.9929	-43.9627	740.1523	-53.8113	322.1199	80.4613	854.935	-0.0592	0.0182	-0.0073	-0.0462	0.0165	0.9585
33.0436	0.65152	3.6925	-1.2361	-1.7868	1.6114	4.1353	-40.957	733.563	-52.1453	319.1596	76.9166	842.6656	-0.0592	0.0182	-0.0073	-0.0462	0.0165	0.9585
33.0556	0.93181	3.1517	-1.229	-1.4587	1.7172	3.4802	-38.033	728.7126	-50.4722	316.9987	73.3906	832.3635	-0.0592	0.0182	-0.0073	-0.0462	0.0165	0.9585
33.0677	1.077	2.7088	-1.1801	-1.1969	1.7083	2.9659	-35.2613	725.8332	-48.8892	315.7169	70.0264	824.3061	-0.0592	0.0182	-0.0073	-0.0462	0.0165	0.9585
33.0798	1.1127	2.3119	-1.0889	-0.97201	1.6019	2.526	-32.6757	724.9351	-47.4691	315.3014	66.9218	818.5099	-0.0592	0.0182	-0.0073	-0.0462	0.0165	0.9585
33.0919	1.0541	1.9463	-0.98837	-0.7685	1.4376	2.1428	-30.2741	725.8447	-46.2446	315.662	64.1156	814.7715	-0.0592	0.0182	-0.0073	-0.0462	0.0165	0.9585
33.1039	0.93099	1.5604	-0.86813	-0.56284	1.2262	1.7412	-28.0102	728.2519	-45.2345	316.6503	61.6094	812.7014	-0.0592	0.0182	-0.0073	-0.0462	0.0165	0.9585
33.116	0.75569	1.1331	-0.7412	-0.34252	0.98864	1.2985	-25.7989	731.7377	-44.4274	318.0779	59.3554	811.7793	-0.0592	0.0182	-0.0073	-0.0462	0.0165	0.9585
33.1281	0.55423	0.57885	-0.58537	-0.080687	0.72035	0.69614	-23.542	735.8544	-43.8081	319.7467	57.2973	811.4642	-0.0592	0.0182	-0.0073	-0.0462	0.0165	0.9585
